<mxfile host="app.diagrams.net" modified="2023-08-07T18:22:08.577Z" agent="Mozilla/5.0 (Windows NT 10.0; Win64; x64) AppleWebKit/537.36 (KHTML, like Gecko) Chrome/115.0.0.0 Safari/537.36" etag="CSYwjRa2hm_jKELqkkm3" version="21.6.6" type="device">
  <diagram id="C5RBs43oDa-KdzZeNtuy" name="Page-1">
    <mxGraphModel dx="1050" dy="542" grid="1" gridSize="10" guides="1" tooltips="1" connect="1" arrows="1" fold="1" page="1" pageScale="1" pageWidth="827" pageHeight="1169" math="0" shadow="0">
      <root>
        <mxCell id="WIyWlLk6GJQsqaUBKTNV-0" />
        <mxCell id="WIyWlLk6GJQsqaUBKTNV-1" parent="WIyWlLk6GJQsqaUBKTNV-0" />
        <mxCell id="ZK7Wu08wTUD1ouKuM5rG-0" value="Scrapper Service" style="rounded=0;whiteSpace=wrap;html=1;fillColor=#dae8fc;strokeColor=#6c8ebf;" vertex="1" parent="WIyWlLk6GJQsqaUBKTNV-1">
          <mxGeometry x="70" y="20" width="120" height="60" as="geometry" />
        </mxCell>
        <mxCell id="ZK7Wu08wTUD1ouKuM5rG-2" value="Midnight" style="shape=step;perimeter=stepPerimeter;whiteSpace=wrap;html=1;fixedSize=1;fillColor=#60a917;strokeColor=#2D7600;fontColor=#ffffff;" vertex="1" parent="WIyWlLk6GJQsqaUBKTNV-1">
          <mxGeometry x="40" y="100" width="120" height="40" as="geometry" />
        </mxCell>
        <mxCell id="ZK7Wu08wTUD1ouKuM5rG-5" value="Scrapes Sites" style="rounded=1;whiteSpace=wrap;html=1;fillColor=#ffe6cc;strokeColor=#d79b00;" vertex="1" parent="WIyWlLk6GJQsqaUBKTNV-1">
          <mxGeometry x="35" y="170" width="130" height="40" as="geometry" />
        </mxCell>
        <mxCell id="ZK7Wu08wTUD1ouKuM5rG-6" value="" style="endArrow=classic;html=1;rounded=0;exitX=0.5;exitY=1;exitDx=0;exitDy=0;entryX=0.5;entryY=0;entryDx=0;entryDy=0;" edge="1" parent="WIyWlLk6GJQsqaUBKTNV-1" source="ZK7Wu08wTUD1ouKuM5rG-2" target="ZK7Wu08wTUD1ouKuM5rG-5">
          <mxGeometry width="50" height="50" relative="1" as="geometry">
            <mxPoint x="390" y="310" as="sourcePoint" />
            <mxPoint x="440" y="260" as="targetPoint" />
          </mxGeometry>
        </mxCell>
        <mxCell id="ZK7Wu08wTUD1ouKuM5rG-7" value="Writes the python dictionary as json" style="rounded=1;whiteSpace=wrap;html=1;fillColor=#d5e8d4;strokeColor=#82b366;" vertex="1" parent="WIyWlLk6GJQsqaUBKTNV-1">
          <mxGeometry x="35" y="230" width="130" height="50" as="geometry" />
        </mxCell>
        <mxCell id="ZK7Wu08wTUD1ouKuM5rG-8" value="" style="endArrow=classic;html=1;rounded=0;exitX=0.5;exitY=1;exitDx=0;exitDy=0;entryX=0.5;entryY=0;entryDx=0;entryDy=0;" edge="1" parent="WIyWlLk6GJQsqaUBKTNV-1" source="ZK7Wu08wTUD1ouKuM5rG-5" target="ZK7Wu08wTUD1ouKuM5rG-7">
          <mxGeometry width="50" height="50" relative="1" as="geometry">
            <mxPoint x="390" y="310" as="sourcePoint" />
            <mxPoint x="440" y="260" as="targetPoint" />
          </mxGeometry>
        </mxCell>
        <mxCell id="ZK7Wu08wTUD1ouKuM5rG-9" value="" style="endArrow=classic;html=1;rounded=0;exitX=1;exitY=0.5;exitDx=0;exitDy=0;entryX=0.16;entryY=0.55;entryDx=0;entryDy=0;entryPerimeter=0;" edge="1" parent="WIyWlLk6GJQsqaUBKTNV-1" source="ZK7Wu08wTUD1ouKuM5rG-7" target="ZK7Wu08wTUD1ouKuM5rG-10">
          <mxGeometry width="50" height="50" relative="1" as="geometry">
            <mxPoint x="390" y="310" as="sourcePoint" />
            <mxPoint x="300" y="40" as="targetPoint" />
            <Array as="points">
              <mxPoint x="220" y="255" />
              <mxPoint x="220" y="164" />
            </Array>
          </mxGeometry>
        </mxCell>
        <mxCell id="ZK7Wu08wTUD1ouKuM5rG-10" value="Scrapped Cars" style="ellipse;shape=cloud;whiteSpace=wrap;html=1;fillColor=#1ba1e2;fontColor=#ffffff;strokeColor=#006EAF;" vertex="1" parent="WIyWlLk6GJQsqaUBKTNV-1">
          <mxGeometry x="250" y="120" width="136" height="80" as="geometry" />
        </mxCell>
        <mxCell id="ZK7Wu08wTUD1ouKuM5rG-11" value="REST/Cache Service" style="rounded=0;whiteSpace=wrap;html=1;fillColor=#dae8fc;strokeColor=#6c8ebf;" vertex="1" parent="WIyWlLk6GJQsqaUBKTNV-1">
          <mxGeometry x="530" y="10" width="130" height="60" as="geometry" />
        </mxCell>
        <mxCell id="ZK7Wu08wTUD1ouKuM5rG-12" value="After Midnight Or Start" style="shape=step;perimeter=stepPerimeter;whiteSpace=wrap;html=1;fixedSize=1;fillColor=#60a917;strokeColor=#2D7600;fontColor=#ffffff;" vertex="1" parent="WIyWlLk6GJQsqaUBKTNV-1">
          <mxGeometry x="370" y="80" width="174" height="40" as="geometry" />
        </mxCell>
        <mxCell id="ZK7Wu08wTUD1ouKuM5rG-13" value="" style="endArrow=classic;html=1;rounded=0;exitX=0.5;exitY=1;exitDx=0;exitDy=0;entryX=0.875;entryY=0.5;entryDx=0;entryDy=0;entryPerimeter=0;" edge="1" parent="WIyWlLk6GJQsqaUBKTNV-1" source="ZK7Wu08wTUD1ouKuM5rG-12" target="ZK7Wu08wTUD1ouKuM5rG-10">
          <mxGeometry width="50" height="50" relative="1" as="geometry">
            <mxPoint x="390" y="310" as="sourcePoint" />
            <mxPoint x="458" y="200" as="targetPoint" />
            <Array as="points">
              <mxPoint x="457" y="160" />
            </Array>
          </mxGeometry>
        </mxCell>
        <mxCell id="ZK7Wu08wTUD1ouKuM5rG-14" value="Reads" style="text;html=1;strokeColor=none;fillColor=none;align=center;verticalAlign=middle;whiteSpace=wrap;rounded=0;" vertex="1" parent="WIyWlLk6GJQsqaUBKTNV-1">
          <mxGeometry x="386" y="130" width="60" height="30" as="geometry" />
        </mxCell>
        <mxCell id="ZK7Wu08wTUD1ouKuM5rG-15" value="Writes" style="text;html=1;strokeColor=none;fillColor=none;align=center;verticalAlign=middle;whiteSpace=wrap;rounded=0;" vertex="1" parent="WIyWlLk6GJQsqaUBKTNV-1">
          <mxGeometry x="210" y="130" width="60" height="30" as="geometry" />
        </mxCell>
        <mxCell id="ZK7Wu08wTUD1ouKuM5rG-16" value="Users Car Cache" style="ellipse;shape=cloud;whiteSpace=wrap;html=1;fillColor=#1ba1e2;fontColor=#ffffff;strokeColor=#006EAF;" vertex="1" parent="WIyWlLk6GJQsqaUBKTNV-1">
          <mxGeometry x="544" y="210" width="160" height="80" as="geometry" />
        </mxCell>
        <mxCell id="ZK7Wu08wTUD1ouKuM5rG-17" value="Cars Dictionary" style="ellipse;shape=cloud;whiteSpace=wrap;html=1;fillColor=#1ba1e2;fontColor=#ffffff;strokeColor=#006EAF;" vertex="1" parent="WIyWlLk6GJQsqaUBKTNV-1">
          <mxGeometry x="380" y="215" width="130" height="80" as="geometry" />
        </mxCell>
        <mxCell id="ZK7Wu08wTUD1ouKuM5rG-18" value="" style="endArrow=classic;html=1;rounded=0;exitX=0.875;exitY=0.5;exitDx=0;exitDy=0;exitPerimeter=0;entryX=0.4;entryY=0.1;entryDx=0;entryDy=0;entryPerimeter=0;" edge="1" parent="WIyWlLk6GJQsqaUBKTNV-1" source="ZK7Wu08wTUD1ouKuM5rG-10" target="ZK7Wu08wTUD1ouKuM5rG-17">
          <mxGeometry width="50" height="50" relative="1" as="geometry">
            <mxPoint x="390" y="210" as="sourcePoint" />
            <mxPoint x="440" y="160" as="targetPoint" />
          </mxGeometry>
        </mxCell>
        <mxCell id="ZK7Wu08wTUD1ouKuM5rG-19" value="Into" style="text;html=1;strokeColor=none;fillColor=none;align=center;verticalAlign=middle;whiteSpace=wrap;rounded=0;" vertex="1" parent="WIyWlLk6GJQsqaUBKTNV-1">
          <mxGeometry x="400" y="175" width="60" height="30" as="geometry" />
        </mxCell>
        <mxCell id="ZK7Wu08wTUD1ouKuM5rG-20" value="" style="endArrow=classic;html=1;rounded=0;exitX=0.875;exitY=0.5;exitDx=0;exitDy=0;exitPerimeter=0;entryX=0.16;entryY=0.55;entryDx=0;entryDy=0;entryPerimeter=0;" edge="1" parent="WIyWlLk6GJQsqaUBKTNV-1" source="ZK7Wu08wTUD1ouKuM5rG-17" target="ZK7Wu08wTUD1ouKuM5rG-16">
          <mxGeometry width="50" height="50" relative="1" as="geometry">
            <mxPoint x="390" y="210" as="sourcePoint" />
            <mxPoint x="440" y="160" as="targetPoint" />
          </mxGeometry>
        </mxCell>
        <mxCell id="ZK7Wu08wTUD1ouKuM5rG-21" value="Caching&amp;nbsp;&lt;br&gt;Layer" style="text;html=1;strokeColor=none;fillColor=none;align=center;verticalAlign=middle;whiteSpace=wrap;rounded=0;" vertex="1" parent="WIyWlLk6GJQsqaUBKTNV-1">
          <mxGeometry x="490" y="210" width="60" height="30" as="geometry" />
        </mxCell>
        <mxCell id="ZK7Wu08wTUD1ouKuM5rG-22" value="As the user filters the cars based on brand and model, if he filters down a list that he had, the service sends the cached data filtered down so it does not filter the whole car/brand list again, otherwise it grabs the response from the dictionary" style="text;html=1;strokeColor=none;fillColor=none;align=center;verticalAlign=middle;whiteSpace=wrap;rounded=0;" vertex="1" parent="WIyWlLk6GJQsqaUBKTNV-1">
          <mxGeometry x="660" y="90" width="150" height="140" as="geometry" />
        </mxCell>
        <mxCell id="ZK7Wu08wTUD1ouKuM5rG-23" value="GET CARS BY BRAND AND MODEL + FILTERS" style="shape=callout;whiteSpace=wrap;html=1;perimeter=calloutPerimeter;fillColor=#f0a30a;fontColor=#FFFFFF;strokeColor=#BD7000;" vertex="1" parent="WIyWlLk6GJQsqaUBKTNV-1">
          <mxGeometry x="460" y="330" width="160" height="80" as="geometry" />
        </mxCell>
        <mxCell id="ZK7Wu08wTUD1ouKuM5rG-26" value="" style="endArrow=classic;html=1;rounded=0;exitX=0.55;exitY=0.95;exitDx=0;exitDy=0;exitPerimeter=0;entryX=0.5;entryY=0;entryDx=0;entryDy=0;entryPerimeter=0;" edge="1" parent="WIyWlLk6GJQsqaUBKTNV-1" source="ZK7Wu08wTUD1ouKuM5rG-17" target="ZK7Wu08wTUD1ouKuM5rG-23">
          <mxGeometry width="50" height="50" relative="1" as="geometry">
            <mxPoint x="390" y="410" as="sourcePoint" />
            <mxPoint x="440" y="360" as="targetPoint" />
          </mxGeometry>
        </mxCell>
        <mxCell id="ZK7Wu08wTUD1ouKuM5rG-27" value="" style="endArrow=classic;html=1;rounded=0;exitX=0.55;exitY=0.95;exitDx=0;exitDy=0;exitPerimeter=0;entryX=0.5;entryY=0;entryDx=0;entryDy=0;entryPerimeter=0;" edge="1" parent="WIyWlLk6GJQsqaUBKTNV-1" source="ZK7Wu08wTUD1ouKuM5rG-16" target="ZK7Wu08wTUD1ouKuM5rG-23">
          <mxGeometry width="50" height="50" relative="1" as="geometry">
            <mxPoint x="390" y="410" as="sourcePoint" />
            <mxPoint x="440" y="360" as="targetPoint" />
          </mxGeometry>
        </mxCell>
        <mxCell id="ZK7Wu08wTUD1ouKuM5rG-28" value="Service" style="rounded=0;whiteSpace=wrap;html=1;fillColor=#dae8fc;strokeColor=#6c8ebf;" vertex="1" parent="WIyWlLk6GJQsqaUBKTNV-1">
          <mxGeometry x="20" y="1030" width="130" height="30" as="geometry" />
        </mxCell>
        <mxCell id="ZK7Wu08wTUD1ouKuM5rG-29" value="Intensive Task" style="rounded=1;whiteSpace=wrap;html=1;fillColor=#ffe6cc;strokeColor=#d79b00;" vertex="1" parent="WIyWlLk6GJQsqaUBKTNV-1">
          <mxGeometry x="20" y="1070" width="130" height="30" as="geometry" />
        </mxCell>
        <mxCell id="ZK7Wu08wTUD1ouKuM5rG-30" value="Easy Task" style="rounded=1;whiteSpace=wrap;html=1;fillColor=#d5e8d4;strokeColor=#82b366;" vertex="1" parent="WIyWlLk6GJQsqaUBKTNV-1">
          <mxGeometry x="170" y="1030" width="130" height="30" as="geometry" />
        </mxCell>
        <mxCell id="ZK7Wu08wTUD1ouKuM5rG-31" value="Trigger" style="shape=step;perimeter=stepPerimeter;whiteSpace=wrap;html=1;fixedSize=1;fillColor=#60a917;strokeColor=#2D7600;fontColor=#ffffff;" vertex="1" parent="WIyWlLk6GJQsqaUBKTNV-1">
          <mxGeometry x="175" y="1070" width="120" height="40" as="geometry" />
        </mxCell>
        <mxCell id="ZK7Wu08wTUD1ouKuM5rG-32" value="Storage" style="ellipse;shape=cloud;whiteSpace=wrap;html=1;fillColor=#1ba1e2;fontColor=#ffffff;strokeColor=#006EAF;" vertex="1" parent="WIyWlLk6GJQsqaUBKTNV-1">
          <mxGeometry x="310" y="1020" width="136" height="50" as="geometry" />
        </mxCell>
        <mxCell id="ZK7Wu08wTUD1ouKuM5rG-33" value="REST CALL" style="shape=callout;whiteSpace=wrap;html=1;perimeter=calloutPerimeter;fillColor=#f0a30a;fontColor=#FFFFFF;strokeColor=#BD7000;size=30;position=0.32;position2=0.5;base=40;" vertex="1" parent="WIyWlLk6GJQsqaUBKTNV-1">
          <mxGeometry x="330" y="1080" width="110" height="60" as="geometry" />
        </mxCell>
        <mxCell id="ZK7Wu08wTUD1ouKuM5rG-34" value="Legend" style="text;html=1;strokeColor=none;fillColor=none;align=center;verticalAlign=middle;whiteSpace=wrap;rounded=0;fontSize=24;" vertex="1" parent="WIyWlLk6GJQsqaUBKTNV-1">
          <mxGeometry x="47.5" y="990" width="60" height="30" as="geometry" />
        </mxCell>
        <mxCell id="ZK7Wu08wTUD1ouKuM5rG-35" value="AI Pricing / Car History Services" style="rounded=0;whiteSpace=wrap;html=1;fillColor=#dae8fc;strokeColor=#6c8ebf;" vertex="1" parent="WIyWlLk6GJQsqaUBKTNV-1">
          <mxGeometry x="41" y="370" width="120" height="60" as="geometry" />
        </mxCell>
        <mxCell id="ZK7Wu08wTUD1ouKuM5rG-36" value="Price / Verify a Car by ID" style="shape=callout;whiteSpace=wrap;html=1;perimeter=calloutPerimeter;fillColor=#f0a30a;fontColor=#FFFFFF;strokeColor=#BD7000;" vertex="1" parent="WIyWlLk6GJQsqaUBKTNV-1">
          <mxGeometry x="16" y="650" width="145" height="60" as="geometry" />
        </mxCell>
        <mxCell id="ZK7Wu08wTUD1ouKuM5rG-38" value="Priced/Verified &lt;br&gt;All Cars&lt;br&gt;Dictionary" style="ellipse;shape=cloud;whiteSpace=wrap;html=1;fillColor=#1ba1e2;fontColor=#ffffff;strokeColor=#006EAF;" vertex="1" parent="WIyWlLk6GJQsqaUBKTNV-1">
          <mxGeometry x="170" y="420" width="130" height="100" as="geometry" />
        </mxCell>
        <mxCell id="ZK7Wu08wTUD1ouKuM5rG-39" value="JSON Data Stored&amp;nbsp;&lt;br&gt;in folders by brand/model" style="ellipse;shape=cloud;whiteSpace=wrap;html=1;fillColor=#1ba1e2;fontColor=#ffffff;strokeColor=#006EAF;" vertex="1" parent="WIyWlLk6GJQsqaUBKTNV-1">
          <mxGeometry x="431" y="640" width="130" height="110" as="geometry" />
        </mxCell>
        <mxCell id="ZK7Wu08wTUD1ouKuM5rG-40" value="JSON Data of all&lt;br&gt;Verified/Priced Cars" style="ellipse;shape=cloud;whiteSpace=wrap;html=1;fillColor=#1ba1e2;fontColor=#ffffff;strokeColor=#006EAF;" vertex="1" parent="WIyWlLk6GJQsqaUBKTNV-1">
          <mxGeometry x="342" y="430" width="170" height="80" as="geometry" />
        </mxCell>
        <mxCell id="ZK7Wu08wTUD1ouKuM5rG-41" value="Start of Service" style="shape=step;perimeter=stepPerimeter;whiteSpace=wrap;html=1;fixedSize=1;fillColor=#60a917;strokeColor=#2D7600;fontColor=#ffffff;" vertex="1" parent="WIyWlLk6GJQsqaUBKTNV-1">
          <mxGeometry x="295" y="550" width="130" height="40" as="geometry" />
        </mxCell>
        <mxCell id="ZK7Wu08wTUD1ouKuM5rG-45" value="" style="endArrow=classic;html=1;rounded=0;exitX=0.55;exitY=0.95;exitDx=0;exitDy=0;exitPerimeter=0;entryX=0.5;entryY=0;entryDx=0;entryDy=0;" edge="1" parent="WIyWlLk6GJQsqaUBKTNV-1" source="ZK7Wu08wTUD1ouKuM5rG-40" target="ZK7Wu08wTUD1ouKuM5rG-41">
          <mxGeometry width="50" height="50" relative="1" as="geometry">
            <mxPoint x="401" y="450" as="sourcePoint" />
            <mxPoint x="321" y="530" as="targetPoint" />
          </mxGeometry>
        </mxCell>
        <mxCell id="ZK7Wu08wTUD1ouKuM5rG-46" value="" style="endArrow=classic;html=1;rounded=0;entryX=0.8;entryY=0.8;entryDx=0;entryDy=0;entryPerimeter=0;exitX=0.5;exitY=0;exitDx=0;exitDy=0;" edge="1" parent="WIyWlLk6GJQsqaUBKTNV-1" source="ZK7Wu08wTUD1ouKuM5rG-41">
          <mxGeometry width="50" height="50" relative="1" as="geometry">
            <mxPoint x="321" y="550" as="sourcePoint" />
            <mxPoint x="269" y="500" as="targetPoint" />
          </mxGeometry>
        </mxCell>
        <mxCell id="ZK7Wu08wTUD1ouKuM5rG-47" value="Reads into" style="text;html=1;strokeColor=none;fillColor=none;align=center;verticalAlign=middle;whiteSpace=wrap;rounded=0;" vertex="1" parent="WIyWlLk6GJQsqaUBKTNV-1">
          <mxGeometry x="326" y="500" width="60" height="30" as="geometry" />
        </mxCell>
        <mxCell id="ZK7Wu08wTUD1ouKuM5rG-48" value="Existent" style="rhombus;whiteSpace=wrap;html=1;fillColor=#fad9d5;strokeColor=#ae4132;" vertex="1" parent="WIyWlLk6GJQsqaUBKTNV-1">
          <mxGeometry x="201" y="575" width="70" height="50" as="geometry" />
        </mxCell>
        <mxCell id="ZK7Wu08wTUD1ouKuM5rG-49" value="" style="endArrow=classic;html=1;rounded=0;exitX=0;exitY=0;exitDx=145;exitDy=15;exitPerimeter=0;entryX=0.31;entryY=0.8;entryDx=0;entryDy=0;entryPerimeter=0;" edge="1" parent="WIyWlLk6GJQsqaUBKTNV-1" source="ZK7Wu08wTUD1ouKuM5rG-36">
          <mxGeometry width="50" height="50" relative="1" as="geometry">
            <mxPoint x="401" y="670" as="sourcePoint" />
            <mxPoint x="205.29999999999995" y="500" as="targetPoint" />
          </mxGeometry>
        </mxCell>
        <mxCell id="ZK7Wu08wTUD1ouKuM5rG-50" value="CAR_ID" style="edgeLabel;html=1;align=center;verticalAlign=middle;resizable=0;points=[];" vertex="1" connectable="0" parent="ZK7Wu08wTUD1ouKuM5rG-49">
          <mxGeometry x="0.0274" relative="1" as="geometry">
            <mxPoint as="offset" />
          </mxGeometry>
        </mxCell>
        <mxCell id="ZK7Wu08wTUD1ouKuM5rG-51" value="" style="endArrow=classic;html=1;rounded=0;exitX=0.55;exitY=0.95;exitDx=0;exitDy=0;exitPerimeter=0;entryX=0.5;entryY=0;entryDx=0;entryDy=0;" edge="1" parent="WIyWlLk6GJQsqaUBKTNV-1" target="ZK7Wu08wTUD1ouKuM5rG-48">
          <mxGeometry width="50" height="50" relative="1" as="geometry">
            <mxPoint x="236.5" y="515" as="sourcePoint" />
            <mxPoint x="451" y="420" as="targetPoint" />
          </mxGeometry>
        </mxCell>
        <mxCell id="ZK7Wu08wTUD1ouKuM5rG-53" value="FLOW CONTROLLER" style="rhombus;whiteSpace=wrap;html=1;fillColor=#fad9d5;strokeColor=#ae4132;" vertex="1" parent="WIyWlLk6GJQsqaUBKTNV-1">
          <mxGeometry x="460" y="1040" width="153" height="70" as="geometry" />
        </mxCell>
        <mxCell id="ZK7Wu08wTUD1ouKuM5rG-55" value="" style="endArrow=classic;html=1;rounded=0;exitX=0.5;exitY=1;exitDx=0;exitDy=0;entryX=0.5;entryY=0;entryDx=0;entryDy=0;" edge="1" parent="WIyWlLk6GJQsqaUBKTNV-1" source="ZK7Wu08wTUD1ouKuM5rG-48" target="ZK7Wu08wTUD1ouKuM5rG-56">
          <mxGeometry width="50" height="50" relative="1" as="geometry">
            <mxPoint x="401" y="650" as="sourcePoint" />
            <mxPoint x="201" y="700" as="targetPoint" />
          </mxGeometry>
        </mxCell>
        <mxCell id="ZK7Wu08wTUD1ouKuM5rG-56" value="YES" style="rhombus;whiteSpace=wrap;html=1;fillColor=#fad9d5;strokeColor=#ae4132;" vertex="1" parent="WIyWlLk6GJQsqaUBKTNV-1">
          <mxGeometry x="201" y="660" width="70" height="50" as="geometry" />
        </mxCell>
        <mxCell id="ZK7Wu08wTUD1ouKuM5rG-57" value="NO" style="rhombus;whiteSpace=wrap;html=1;fillColor=#fad9d5;strokeColor=#ae4132;" vertex="1" parent="WIyWlLk6GJQsqaUBKTNV-1">
          <mxGeometry x="321" y="660" width="70" height="50" as="geometry" />
        </mxCell>
        <mxCell id="ZK7Wu08wTUD1ouKuM5rG-59" value="" style="endArrow=classic;html=1;rounded=0;exitX=0.5;exitY=1;exitDx=0;exitDy=0;entryX=0.5;entryY=0;entryDx=0;entryDy=0;" edge="1" parent="WIyWlLk6GJQsqaUBKTNV-1" source="ZK7Wu08wTUD1ouKuM5rG-48" target="ZK7Wu08wTUD1ouKuM5rG-57">
          <mxGeometry width="50" height="50" relative="1" as="geometry">
            <mxPoint x="401" y="650" as="sourcePoint" />
            <mxPoint x="451" y="600" as="targetPoint" />
            <Array as="points">
              <mxPoint x="356" y="625" />
            </Array>
          </mxGeometry>
        </mxCell>
        <mxCell id="ZK7Wu08wTUD1ouKuM5rG-63" value="Get Response, Store it in dictionary and folder JSONS, and send it back" style="rounded=1;whiteSpace=wrap;html=1;fillColor=#d5e8d4;strokeColor=#82b366;" vertex="1" parent="WIyWlLk6GJQsqaUBKTNV-1">
          <mxGeometry x="175" y="790" width="120" height="80" as="geometry" />
        </mxCell>
        <mxCell id="ZK7Wu08wTUD1ouKuM5rG-64" value="" style="endArrow=classic;html=1;rounded=0;exitX=0.5;exitY=1;exitDx=0;exitDy=0;entryX=0.5;entryY=0;entryDx=0;entryDy=0;" edge="1" parent="WIyWlLk6GJQsqaUBKTNV-1" source="ZK7Wu08wTUD1ouKuM5rG-56" target="ZK7Wu08wTUD1ouKuM5rG-63">
          <mxGeometry width="50" height="50" relative="1" as="geometry">
            <mxPoint x="236" y="740" as="sourcePoint" />
            <mxPoint x="451" y="600" as="targetPoint" />
          </mxGeometry>
        </mxCell>
        <mxCell id="ZK7Wu08wTUD1ouKuM5rG-91" value="If latest update in the storage&lt;br&gt;is 10 days older than this pricing&lt;br&gt;get a new pricing" style="edgeLabel;html=1;align=center;verticalAlign=middle;resizable=0;points=[];" vertex="1" connectable="0" parent="ZK7Wu08wTUD1ouKuM5rG-64">
          <mxGeometry x="-0.4995" y="-2" relative="1" as="geometry">
            <mxPoint as="offset" />
          </mxGeometry>
        </mxCell>
        <mxCell id="ZK7Wu08wTUD1ouKuM5rG-65" value="Update Users list" style="text;html=1;strokeColor=none;fillColor=none;align=center;verticalAlign=middle;whiteSpace=wrap;rounded=0;" vertex="1" parent="WIyWlLk6GJQsqaUBKTNV-1">
          <mxGeometry x="371" y="880" width="60" height="30" as="geometry" />
        </mxCell>
        <mxCell id="ZK7Wu08wTUD1ouKuM5rG-66" value="Get GPT Pricing / Car Vertical Eval" style="rounded=1;whiteSpace=wrap;html=1;fillColor=#d5e8d4;strokeColor=#82b366;" vertex="1" parent="WIyWlLk6GJQsqaUBKTNV-1">
          <mxGeometry x="291" y="740" width="130" height="50" as="geometry" />
        </mxCell>
        <mxCell id="ZK7Wu08wTUD1ouKuM5rG-67" value="" style="endArrow=classic;html=1;rounded=0;exitX=0.5;exitY=1;exitDx=0;exitDy=0;entryX=0.5;entryY=0;entryDx=0;entryDy=0;" edge="1" parent="WIyWlLk6GJQsqaUBKTNV-1" source="ZK7Wu08wTUD1ouKuM5rG-57" target="ZK7Wu08wTUD1ouKuM5rG-66">
          <mxGeometry width="50" height="50" relative="1" as="geometry">
            <mxPoint x="401" y="650" as="sourcePoint" />
            <mxPoint x="451" y="600" as="targetPoint" />
          </mxGeometry>
        </mxCell>
        <mxCell id="ZK7Wu08wTUD1ouKuM5rG-68" value="" style="endArrow=classic;html=1;rounded=0;exitX=0.5;exitY=1;exitDx=0;exitDy=0;entryX=1.023;entryY=0.405;entryDx=0;entryDy=0;entryPerimeter=0;" edge="1" parent="WIyWlLk6GJQsqaUBKTNV-1" source="ZK7Wu08wTUD1ouKuM5rG-66" target="ZK7Wu08wTUD1ouKuM5rG-63">
          <mxGeometry width="50" height="50" relative="1" as="geometry">
            <mxPoint x="401" y="650" as="sourcePoint" />
            <mxPoint x="451" y="600" as="targetPoint" />
            <Array as="points">
              <mxPoint x="356" y="820" />
            </Array>
          </mxGeometry>
        </mxCell>
        <mxCell id="ZK7Wu08wTUD1ouKuM5rG-69" value="" style="endArrow=classic;html=1;rounded=0;exitX=0;exitY=0;exitDx=0;exitDy=0;entryX=0;entryY=0;entryDx=72.5;entryDy=60;entryPerimeter=0;" edge="1" parent="WIyWlLk6GJQsqaUBKTNV-1" source="ZK7Wu08wTUD1ouKuM5rG-63" target="ZK7Wu08wTUD1ouKuM5rG-36">
          <mxGeometry width="50" height="50" relative="1" as="geometry">
            <mxPoint x="401" y="650" as="sourcePoint" />
            <mxPoint x="451" y="600" as="targetPoint" />
            <Array as="points">
              <mxPoint x="89" y="790" />
            </Array>
          </mxGeometry>
        </mxCell>
        <mxCell id="ZK7Wu08wTUD1ouKuM5rG-70" value="" style="endArrow=classic;html=1;rounded=0;exitX=0.5;exitY=1;exitDx=0;exitDy=0;entryX=0.55;entryY=0.95;entryDx=0;entryDy=0;entryPerimeter=0;" edge="1" parent="WIyWlLk6GJQsqaUBKTNV-1" source="ZK7Wu08wTUD1ouKuM5rG-63" target="ZK7Wu08wTUD1ouKuM5rG-39">
          <mxGeometry width="50" height="50" relative="1" as="geometry">
            <mxPoint x="401" y="750" as="sourcePoint" />
            <mxPoint x="451" y="700" as="targetPoint" />
            <Array as="points">
              <mxPoint x="235" y="920" />
              <mxPoint x="503" y="920" />
            </Array>
          </mxGeometry>
        </mxCell>
        <mxCell id="ZK7Wu08wTUD1ouKuM5rG-71" value="" style="shape=step;perimeter=stepPerimeter;whiteSpace=wrap;html=1;fixedSize=1;fillColor=#60a917;strokeColor=#2D7600;fontColor=#ffffff;rotation=-180;verticalAlign=middle;" vertex="1" parent="WIyWlLk6GJQsqaUBKTNV-1">
          <mxGeometry x="521" y="550" width="120" height="45" as="geometry" />
        </mxCell>
        <mxCell id="ZK7Wu08wTUD1ouKuM5rG-72" value="" style="endArrow=classic;html=1;rounded=0;exitX=0.4;exitY=0.1;exitDx=0;exitDy=0;exitPerimeter=0;entryX=1;entryY=0.5;entryDx=0;entryDy=0;" edge="1" parent="WIyWlLk6GJQsqaUBKTNV-1" source="ZK7Wu08wTUD1ouKuM5rG-39" target="ZK7Wu08wTUD1ouKuM5rG-71">
          <mxGeometry width="50" height="50" relative="1" as="geometry">
            <mxPoint x="401" y="640" as="sourcePoint" />
            <mxPoint x="451" y="590" as="targetPoint" />
          </mxGeometry>
        </mxCell>
        <mxCell id="ZK7Wu08wTUD1ouKuM5rG-73" value="" style="endArrow=classic;html=1;rounded=0;entryX=0.8;entryY=0.8;entryDx=0;entryDy=0;entryPerimeter=0;exitX=1;exitY=0.5;exitDx=0;exitDy=0;" edge="1" parent="WIyWlLk6GJQsqaUBKTNV-1" source="ZK7Wu08wTUD1ouKuM5rG-71" target="ZK7Wu08wTUD1ouKuM5rG-40">
          <mxGeometry width="50" height="50" relative="1" as="geometry">
            <mxPoint x="491" y="570" as="sourcePoint" />
            <mxPoint x="451" y="590" as="targetPoint" />
          </mxGeometry>
        </mxCell>
        <mxCell id="ZK7Wu08wTUD1ouKuM5rG-74" value="Rollup" style="text;html=1;strokeColor=none;fillColor=none;align=center;verticalAlign=middle;whiteSpace=wrap;rounded=0;" vertex="1" parent="WIyWlLk6GJQsqaUBKTNV-1">
          <mxGeometry x="432" y="575" width="60" height="30" as="geometry" />
        </mxCell>
        <mxCell id="ZK7Wu08wTUD1ouKuM5rG-75" value="Rollup grabs all the data in the folders and puts them in a single json&lt;br&gt;&lt;br&gt;If any single priced/verifiec car_id goes past the 30 day limit from the latest update ignores it in the rollup" style="text;html=1;strokeColor=none;fillColor=none;align=center;verticalAlign=middle;whiteSpace=wrap;rounded=0;" vertex="1" parent="WIyWlLk6GJQsqaUBKTNV-1">
          <mxGeometry x="651" y="480" width="160" height="210" as="geometry" />
        </mxCell>
        <mxCell id="ZK7Wu08wTUD1ouKuM5rG-76" value="Midnight" style="text;html=1;strokeColor=none;fillColor=none;align=center;verticalAlign=middle;whiteSpace=wrap;rounded=0;fontColor=#FFFFFF;" vertex="1" parent="WIyWlLk6GJQsqaUBKTNV-1">
          <mxGeometry x="541" y="557.5" width="60" height="30" as="geometry" />
        </mxCell>
        <mxCell id="ZK7Wu08wTUD1ouKuM5rG-77" value="" style="endArrow=none;dashed=1;html=1;dashPattern=1 3;strokeWidth=2;rounded=0;" edge="1" parent="WIyWlLk6GJQsqaUBKTNV-1">
          <mxGeometry width="50" height="50" relative="1" as="geometry">
            <mxPoint x="10" y="290" as="sourcePoint" />
            <mxPoint x="10" y="80" as="targetPoint" />
          </mxGeometry>
        </mxCell>
        <mxCell id="ZK7Wu08wTUD1ouKuM5rG-78" value="" style="endArrow=none;dashed=1;html=1;dashPattern=1 3;strokeWidth=2;rounded=0;" edge="1" parent="WIyWlLk6GJQsqaUBKTNV-1">
          <mxGeometry width="50" height="50" relative="1" as="geometry">
            <mxPoint x="10" y="80" as="sourcePoint" />
            <mxPoint x="260" y="80" as="targetPoint" />
          </mxGeometry>
        </mxCell>
        <mxCell id="ZK7Wu08wTUD1ouKuM5rG-79" value="" style="endArrow=none;dashed=1;html=1;dashPattern=1 3;strokeWidth=2;rounded=0;" edge="1" parent="WIyWlLk6GJQsqaUBKTNV-1">
          <mxGeometry width="50" height="50" relative="1" as="geometry">
            <mxPoint x="259" y="290" as="sourcePoint" />
            <mxPoint x="259" y="80" as="targetPoint" />
          </mxGeometry>
        </mxCell>
        <mxCell id="ZK7Wu08wTUD1ouKuM5rG-80" value="" style="endArrow=none;dashed=1;html=1;dashPattern=1 3;strokeWidth=2;rounded=0;" edge="1" parent="WIyWlLk6GJQsqaUBKTNV-1">
          <mxGeometry width="50" height="50" relative="1" as="geometry">
            <mxPoint x="10" y="294" as="sourcePoint" />
            <mxPoint x="260" y="294" as="targetPoint" />
          </mxGeometry>
        </mxCell>
        <mxCell id="ZK7Wu08wTUD1ouKuM5rG-81" value="" style="endArrow=none;dashed=1;html=1;dashPattern=1 3;strokeWidth=2;rounded=0;" edge="1" parent="WIyWlLk6GJQsqaUBKTNV-1">
          <mxGeometry width="50" height="50" relative="1" as="geometry">
            <mxPoint x="370" y="400" as="sourcePoint" />
            <mxPoint x="370" y="70" as="targetPoint" />
          </mxGeometry>
        </mxCell>
        <mxCell id="ZK7Wu08wTUD1ouKuM5rG-82" value="" style="endArrow=none;dashed=1;html=1;dashPattern=1 3;strokeWidth=2;rounded=0;" edge="1" parent="WIyWlLk6GJQsqaUBKTNV-1">
          <mxGeometry width="50" height="50" relative="1" as="geometry">
            <mxPoint x="370" y="69" as="sourcePoint" />
            <mxPoint x="820" y="70" as="targetPoint" />
          </mxGeometry>
        </mxCell>
        <mxCell id="ZK7Wu08wTUD1ouKuM5rG-83" value="" style="endArrow=none;dashed=1;html=1;dashPattern=1 3;strokeWidth=2;rounded=0;" edge="1" parent="WIyWlLk6GJQsqaUBKTNV-1">
          <mxGeometry width="50" height="50" relative="1" as="geometry">
            <mxPoint x="820" y="400" as="sourcePoint" />
            <mxPoint x="820" y="70" as="targetPoint" />
          </mxGeometry>
        </mxCell>
        <mxCell id="ZK7Wu08wTUD1ouKuM5rG-84" value="" style="endArrow=none;dashed=1;html=1;dashPattern=1 3;strokeWidth=2;rounded=0;" edge="1" parent="WIyWlLk6GJQsqaUBKTNV-1">
          <mxGeometry width="50" height="50" relative="1" as="geometry">
            <mxPoint x="370" y="400" as="sourcePoint" />
            <mxPoint x="820" y="401" as="targetPoint" />
          </mxGeometry>
        </mxCell>
        <mxCell id="ZK7Wu08wTUD1ouKuM5rG-85" value="" style="endArrow=none;dashed=1;html=1;dashPattern=1 3;strokeWidth=2;rounded=0;" edge="1" parent="WIyWlLk6GJQsqaUBKTNV-1">
          <mxGeometry width="50" height="50" relative="1" as="geometry">
            <mxPoint x="11" y="430" as="sourcePoint" />
            <mxPoint x="810" y="431" as="targetPoint" />
          </mxGeometry>
        </mxCell>
        <mxCell id="ZK7Wu08wTUD1ouKuM5rG-86" value="" style="endArrow=none;dashed=1;html=1;dashPattern=1 3;strokeWidth=2;rounded=0;" edge="1" parent="WIyWlLk6GJQsqaUBKTNV-1">
          <mxGeometry width="50" height="50" relative="1" as="geometry">
            <mxPoint x="810" y="960" as="sourcePoint" />
            <mxPoint x="810" y="430" as="targetPoint" />
          </mxGeometry>
        </mxCell>
        <mxCell id="ZK7Wu08wTUD1ouKuM5rG-87" value="" style="endArrow=none;dashed=1;html=1;dashPattern=1 3;strokeWidth=2;rounded=0;" edge="1" parent="WIyWlLk6GJQsqaUBKTNV-1">
          <mxGeometry width="50" height="50" relative="1" as="geometry">
            <mxPoint x="10" y="960" as="sourcePoint" />
            <mxPoint x="10" y="430" as="targetPoint" />
          </mxGeometry>
        </mxCell>
        <mxCell id="ZK7Wu08wTUD1ouKuM5rG-88" value="" style="endArrow=none;dashed=1;html=1;dashPattern=1 3;strokeWidth=2;rounded=0;" edge="1" parent="WIyWlLk6GJQsqaUBKTNV-1">
          <mxGeometry width="50" height="50" relative="1" as="geometry">
            <mxPoint x="11" y="960" as="sourcePoint" />
            <mxPoint x="810" y="961" as="targetPoint" />
          </mxGeometry>
        </mxCell>
        <mxCell id="ZK7Wu08wTUD1ouKuM5rG-90" value="" style="endArrow=classic;html=1;rounded=0;exitX=0.5;exitY=1;exitDx=0;exitDy=0;entryX=0.5;entryY=0;entryDx=0;entryDy=0;" edge="1" parent="WIyWlLk6GJQsqaUBKTNV-1" source="ZK7Wu08wTUD1ouKuM5rG-56">
          <mxGeometry width="50" height="50" relative="1" as="geometry">
            <mxPoint x="236" y="710" as="sourcePoint" />
            <mxPoint x="236" y="710" as="targetPoint" />
          </mxGeometry>
        </mxCell>
      </root>
    </mxGraphModel>
  </diagram>
</mxfile>
